HIERARCHY
ROOT Hips
{
    OFFSET 0.000000 0.000000 0.000000
    CHANNELS 6 Xposition Yposition Zposition Zrotation Xrotation Yrotation
        JOINT Chest
        {
            OFFSET -0.000000 28.596201 -0.000000
            CHANNELS 3 Zrotation Xrotation Yrotation
            JOINT Neck
            {
                OFFSET -0.000000 20.833183 0.000000
                CHANNELS 3 Zrotation Xrotation Yrotation
                JOINT Head
                {
                    OFFSET -0.000000 10.327778 0.000000
                    CHANNELS 3 Zrotation Xrotation Yrotation
                    End Site
                    {
                        OFFSET -0.000000 15.961117 0.000000
                    }
                }
            }
            JOINT LeftCollar
            {
                OFFSET -0.000000 20.833183 0.000000
                CHANNELS 3 Zrotation Xrotation Yrotation
                JOINT LeftShoulder
                {
                    OFFSET 18.777777 -0.000000 0.000000
                    CHANNELS 3 Zrotation Xrotation Yrotation
                    JOINT LeftElbow
                    {
                        OFFSET 23.016544 0.000000 0.000000
                        CHANNELS 3 Zrotation Xrotation Yrotation
                        JOINT LeftWrist
                        {
                            OFFSET 24.619797 0.000000 0.000000
                            CHANNELS 3 Zrotation Xrotation Yrotation
                            End Site
                            {
                                OFFSET 0.000000 -14.083333 0.000000
                            }
                        }
                    }
                }
            }
            JOINT RightCollar
            {
                OFFSET -0.000000 20.833183 0.000000
                CHANNELS 3 Zrotation Xrotation Yrotation
                JOINT RightShoulder
                {
                    OFFSET -18.777777 0.000000 0.000000
                    CHANNELS 3 Zrotation Xrotation Yrotation
                    JOINT RightElbow
                    {
                        OFFSET -23.016544 0.000000 0.000000
                        CHANNELS 3 Zrotation Xrotation Yrotation
                        JOINT RightWrist
                        {
                            OFFSET -24.619797 0.000000 0.000000
                            CHANNELS 3 Zrotation Xrotation Yrotation
                            End Site
                            {
                                OFFSET -0.000000 -14.083333 0.000000
                            }
                        }
                    }
                }
            }
        }
    JOINT LeftHip
    {
        OFFSET 11.266668 0.000000 0.000000
        CHANNELS 3 Zrotation Xrotation Yrotation
        JOINT LeftKnee
        {
            OFFSET -0.000000 -40.535309 0.000000
            CHANNELS 3 Zrotation Xrotation Yrotation
            JOINT LeftAnkle
            {
                OFFSET -0.000000 -39.958225 0.000000
                CHANNELS 3 Zrotation Xrotation Yrotation
                End Site
                {
                    OFFSET -0.000000 -4.694444 15.961117
                }
            }
        }
    }
    JOINT RightHip
    {
        OFFSET -11.266668 0.000000 0.000000
        CHANNELS 3 Zrotation Xrotation Yrotation
        JOINT RightKnee
        {
            OFFSET -0.000000 -40.535309 0.000000
            CHANNELS 3 Zrotation Xrotation Yrotation
            JOINT RightAnkle
            {
                OFFSET -0.000000 -39.958225 0.000000
                CHANNELS 3 Zrotation Xrotation Yrotation
                End Site
                {
                    OFFSET -0.000000 -4.694444 15.961117
                }
            }
        }
    }
}
MOTION
Frames:    14
Frame Time:    0.010000
-41.345280    88.835663    -54.858303    4.216373    3.735868    -6.497766    1.299788    -13.461577    0.170515    -9.978536    16.140404    6.650339    1.210830    -13.183571    5.794642    -11.757261    -3.184060    30.391136    -51.173466    63.296371    -10.764091    20.201752    -18.537796    -85.069420    108.057953    14.797809    48.621048    21.498507    -0.581675    -2.959149    35.349800    38.960461    5.905329    17.824968    13.267447    73.203087    -99.556129    -22.629303    20.196453    0.609064    4.877754    -5.232363    -0.314189    10.740225    5.154127    -1.465150    -12.961472    21.875875    1.610514    -4.836169    8.095873    -10.741774    18.636684    17.557381    4.641430    -14.340953    -9.126138    
-41.340302    88.831886    -54.830879    4.212719    3.736593    -6.418663    1.249173    -13.468474    0.105513    -10.002563    16.203730    6.644276    2.561965    -12.635024    5.499710    -11.747379    -3.224146    30.442776    -50.992744    63.282555    -10.940711    20.137768    -18.485077    -85.140213    108.226776    14.910557    48.608799    21.497744    -0.581636    -2.962063    35.387749    38.975521    5.829119    17.799011    13.302336    73.232018    -99.538727    -22.630520    20.224077    0.613023    4.887078    -5.303071    -0.312673    10.732141    5.131046    -1.464104    -12.957226    21.891300    1.594124    -4.804668    8.054355    -10.707687    18.635424    17.510984    4.596879    -14.353077    -9.136528    
-41.331707    88.812065    -54.802589    4.200748    3.755485    -6.367316    1.259404    -13.496330    0.099645    -10.032352    16.237701    6.639283    2.603595    -12.703438    5.492344    -11.775450    -3.217673    30.447605    -50.841152    63.369308    -11.083262    20.045240    -18.386646    -85.139977    108.473045    14.904252    48.456974    21.460011    -0.579678    -2.977756    35.444855    38.996700    5.768070    17.829899    13.264955    73.234169    -99.683540    -22.676073    20.178541    0.621291    4.867116    -5.289796    -0.288276    10.749178    5.043358    -1.468157    -12.965305    21.918100    1.612844    -4.799426    8.039223    -10.721948    18.633854    17.499199    4.546979    -14.336501    -9.152986    
-41.330482    88.812698    -54.788025    4.196450    3.764824    -6.323147    1.244450    -13.511616    0.081887    -10.051785    16.260548    6.636737    2.606446    -12.778429    5.488074    -11.797353    -3.198077    30.461761    -50.670631    63.399937    -11.262154    19.983040    -18.352766    -85.151352    108.570290    14.891637    48.332169    21.444342    -0.550847    -2.986815    35.475952    38.983276    5.730661    17.797468    13.297356    73.241013    -99.641045    -22.675430    20.199160    0.625958    4.860314    -5.298154    -0.279459    10.752316    5.001797    -1.471306    -12.966760    21.927835    1.612409    -4.790080    8.011003    -10.719249    18.632418    17.493284    4.522976    -14.340208    -9.166128    
-41.329391    88.815430    -54.773258    4.193386    3.777529    -6.275024    1.224223    -13.532558    0.065289    -10.076154    16.280447    6.635571    2.618187    -12.843412    5.484609    -11.789288    -3.233093    30.481026    -50.581165    63.485401    -11.391011    20.025612    -18.423120    -85.080727    108.539719    14.802742    48.180309    21.422325    -0.569507    -2.994359    35.519798    39.025005    5.684597    17.733021    13.242364    73.288612    -99.676056    -22.683239    20.156361    0.629623    4.850666    -5.308982    -0.270803    10.753981    4.962563    -1.474019    -12.967832    21.935951    1.609902    -4.783267    7.975009    -10.717398    18.630993    17.493448    4.499685    -14.346055    -9.180761    
-41.327877    88.819344    -54.758442    4.192352    3.793905    -6.224760    1.197174    -13.560235    0.050974    -10.086476    16.303650    6.625762    2.627620    -12.896404    5.472387    -11.807417    -3.220794    30.485130    -50.397335    63.541424    -11.557410    19.966497    -18.336229    -85.104431    108.740997    14.865431    48.176559    21.401360    -0.588216    -3.015060    35.580624    39.053699    5.613598    17.690941    13.243515    73.309578    -99.743484    -22.696152    20.101019    0.631261    4.837915    -5.325276    -0.263211    10.753803    4.929241    -1.476033    -12.968907    21.943602    1.604483    -4.780036    7.932723    -10.715940    18.629494    17.499199    4.475428    -14.353084    -9.196848    
-41.325436    88.823494    -54.743649    4.194146    3.813909    -6.174425    1.166314    -13.593937    0.040691    -10.086024    16.326635    6.610157    2.634444    -12.934028    5.455870    -11.801179    -3.249591    30.479855    -50.282269    63.637253    -11.702971    20.027603    -18.399439    -85.026039    108.689850    14.753273    48.032959    21.384747    -0.553025    -3.043828    35.634251    39.021660    5.554826    17.752348    13.288777    73.281929    -99.903458    -22.738121    20.054819    0.629728    4.822284    -5.348972    -0.257189    10.751683    4.903785    -1.477075    -12.970616    21.952387    1.595222    -4.780961    7.886716    -10.714091    18.627741    17.508749    4.448685    -14.360038    -9.213601    
-41.321774    88.827095    -54.728859    4.198902    3.837135    -6.126119    1.134208    -13.631376    0.035904    -10.104104    16.334311    6.607039    2.653434    -12.949455    5.453882    -11.829000    -3.233478    30.488644    -50.082104    63.682945    -11.886488    19.978569    -18.320871    -85.043770    108.867645    14.795705    48.040642    21.361534    -0.586101    -3.053928    35.698078    39.062214    5.491762    17.702135    13.223195    73.332375    -99.862671    -22.734007    20.089619    0.624532    4.804288    -5.380552    -0.252835    10.747808    4.887664    -1.477006    -12.973512    21.962919    1.581835    -4.785907    7.840278    -10.710930    18.625637    17.520227    4.418555    -14.366159    -9.230676    
-41.316750    88.829529    -54.713928    4.206381    3.862487    -6.081865    1.096112    -13.671106    0.036977    -10.103082    16.338314    6.594947    2.667398    -12.941677    5.442191    -11.856390    -3.217111    30.480356    -49.878559    63.727272    -12.102454    19.949770    -18.329441    -85.022842    108.905190    14.727089    47.930008    21.346346    -0.557271    -3.079335    35.762802    39.017773    5.421705    17.767403    13.297333    73.297829    -100.024582    -22.767288    20.052511    0.615461    4.785224    -5.418097    -0.249599    10.742627    4.880992    -1.476263    -12.978229    21.974382    1.564429    -4.793755    7.796703    -10.705624    18.622803    17.531469    4.385153    -14.371088    -9.247425    
-41.310402    88.830505    -54.698608    4.215817    3.888603    -6.043227    1.057513    -13.709610    0.044510    -10.101354    16.328733    6.584239    2.681317    -12.909713    5.433456    -11.872895    -3.226809    30.476255    -49.705185    63.786018    -12.298414    20.013605    -18.379856    -84.956474    108.826149    14.615625    47.822254    21.329014    -0.590648    -3.104292    35.829273    39.036533    5.363603    17.724495    13.255419    73.343445    -100.005913    -22.754307    20.084480    0.602910    4.766721    -5.459426    -0.246805    10.736519    4.882758    -1.475117    -12.985139    21.986353    1.543751    -4.802679    7.759078    -10.697618    18.618788    17.540880    4.349447    -14.375056    -9.263868    
-41.302917    88.829933    -54.682522    4.226025    3.913993    -6.011289    1.019444    -13.743999    0.057833    -10.107323    16.302134    6.579960    2.698150    -12.855344    5.431524    -11.877065    -3.269019    30.490871    -49.550129    63.873940    -12.474454    20.093332    -18.456749    -84.875595    108.762306    14.546752    47.791977    21.314882    -0.561862    -3.122659    35.890205    38.984303    5.306947    17.805626    13.336607    73.308388    -100.185417    -22.774635    20.050526    0.587744    4.750781    -5.500983    -0.243423    10.729930    4.888676    -1.473677    -12.994654    21.999622    1.521130    -4.810389    7.729392    -10.686926    18.612808    17.547482    4.313461    -14.378437    -9.280040    
-41.294521    88.827927    -54.665207    4.235536    3.937018    -5.986489    0.980948    -13.772548    0.075295    -10.096720    16.270569    6.566818    2.703740    -12.786581    5.421650    -11.908780    -3.264710    30.505320    -49.258152    63.947559    -12.746458    20.133217    -18.435741    -84.847649    108.773201    14.555971    47.834885    21.302795    -0.589218    -3.157104    35.946842    38.988571    5.273123    17.759960    13.307653    73.359650    -100.139847    -22.732410    20.090853    0.571247    4.739692    -5.540881    -0.238895    10.722920    4.894126    -1.471588    -13.007033    22.016777    1.498223    -4.813982    7.708754    -10.673971    18.603537    17.550413    4.279727    -14.381442    -9.295444    
-41.285469    88.824776    -54.646324    4.243033    3.956853    -5.968556    0.947419    -13.793766    0.095590    -10.099637    16.228251    6.564577    2.706129    -12.713964    5.421898    -11.945470    -3.263346    30.552380    -48.900074    64.053284    -13.117790    20.223246    -18.528633    -84.753410    108.648193    14.492041    47.821259    21.292046    -0.608435    -3.179859    36.008400    38.976376    5.226449    17.809397    13.330436    73.365990    -100.274368    -22.715117    20.053963    0.554790    4.734797    -5.578633    -0.233192    10.715415    4.895159    -1.467909    -13.022222    22.040911    1.476660    -4.811491    7.696777    -10.659678    18.589769    17.550484    4.250375    -14.384200    -9.310551    
-41.275948    88.820824    -54.625862    4.247542    3.973532    -5.956492    0.916403    -13.809422    0.115987    -10.098660    16.190260    6.562394    2.697088    -12.649242    5.421746    -11.962417    -3.296324    30.614740    -48.546421    64.218643    -13.501325    20.389353    -18.710075    -84.592285    108.426605    14.400248    47.819229    21.289408    -0.573971    -3.206437    36.049160    38.907784    5.210162    17.886747    13.399452    73.349579    -100.316277    -22.678562    20.078243    0.539655    4.736080    -5.615956    -0.227042    10.707387    4.890444    -1.461329    -13.039704    22.074621    1.457584    -4.802115    7.691367    -10.644976    18.570313    17.549425    4.226975    -14.386582    -9.325667    
